<svg width="208" height="27" viewBox="0 0 208 27" fill="none" xmlns="http://www.w3.org/2000/svg">
<path d="M19.6885 0C19.7119 2.32038 21.2073 7.04511 27.001 7.38281V13.501H19.6865C19.6865 10.0837 16.9163 7.31271 13.499 7.3125C10.0816 7.3125 7.31055 10.0835 7.31055 13.501H0V7.66406C2.32043 7.66406 7.04529 6.13154 7.38281 0H19.6885Z" fill="#0D0E10"/>
<path d="M19.6885 13.5C19.7119 15.8204 21.2073 20.5451 27.001 20.8828V27.001H19.6865C19.6865 23.5837 16.9163 20.8127 13.499 20.8125C10.0816 20.8125 7.31055 23.5835 7.31055 27.001H0V21.1641C2.32043 21.1641 7.04529 19.6315 7.38281 13.5H19.6885Z" fill="#0D0E10"/>
<g clip-path="url(#clip0_4364_2482)">
<path d="M36.2837 21.9721L43.7461 4.89087H46.5082L53.9707 21.9721H50.8209L49.1007 17.8775H41.081L39.3365 21.9721H36.2837ZM42.1713 15.2366H48.0104L45.0787 8.45251L42.1713 15.2366ZM56.031 21.9721V9.17937H58.987V12.0626C59.7865 10.1243 61.2645 8.84017 63.5177 8.93708V12.0384H63.3481C60.7557 12.0384 58.987 13.7101 58.987 17.1022V21.9721H56.031ZM71.0652 22.2629C67.2613 22.2629 64.4507 19.2828 64.4507 15.6484V15.6C64.4507 11.9657 67.2613 8.91285 71.1136 8.91285C73.5123 8.91285 74.9902 9.80932 76.2259 11.1177L74.3845 13.0802C73.4881 12.1353 72.5431 11.4811 71.0894 11.4811C68.9573 11.4811 67.3824 13.3225 67.3824 15.5515V15.6C67.3824 17.8775 68.9573 19.6946 71.2106 19.6946C72.5916 19.6946 73.585 19.0647 74.5299 18.1198L76.2986 19.8642C75.0387 21.2937 73.5607 22.2629 71.0652 22.2629ZM78.486 21.9721V4.28516H81.442V11.1419C82.29 9.95469 83.4287 8.91285 85.4397 8.91285C88.3471 8.91285 89.9947 10.8269 89.9947 13.8071V21.9721H87.063V14.7035C87.063 12.6925 86.0696 11.578 84.3252 11.578C82.6049 11.578 81.442 12.741 81.442 14.752V21.9721H78.486ZM98.9137 22.2629C95.2309 22.2629 92.3477 19.5735 92.3477 15.6242V15.5758C92.3477 11.893 94.9402 8.91285 98.5987 8.91285C102.669 8.91285 104.729 12.111 104.729 15.7938C104.729 16.0603 104.704 16.3269 104.68 16.6176H95.2794C95.5944 18.7255 97.0481 19.8642 98.9622 19.8642C100.416 19.8642 101.385 19.3312 102.427 18.3378L104.147 19.8642C102.911 21.318 101.264 22.2629 98.9137 22.2629ZM95.2552 14.6793H101.821C101.627 12.8137 100.513 11.3115 98.5745 11.3115C96.7573 11.3115 95.5217 12.6683 95.2552 14.6793ZM111.477 22.1902C109.32 22.1902 107.794 21.2453 107.794 18.4347V11.6992H106.171V9.17937H107.794V5.66619H110.726V9.17937H114.166V11.6992H110.726V17.9744C110.726 19.1132 111.307 19.5735 112.3 19.5735C112.93 19.5735 113.536 19.4281 114.118 19.1374V21.536C113.367 21.9479 112.615 22.1902 111.477 22.1902ZM123.784 21.9721V5.01202H130.107C135.438 5.01202 139.12 8.67057 139.12 13.4436V13.4921C139.12 18.2651 135.438 21.9721 130.107 21.9721H123.784ZM130.107 7.72564H126.764V19.2585H130.107C133.669 19.2585 135.995 16.8599 135.995 13.5405V13.4921C135.995 10.1727 133.669 7.72564 130.107 7.72564ZM147.775 22.2629C144.093 22.2629 141.209 19.5735 141.209 15.6242V15.5758C141.209 11.893 143.802 8.91285 147.46 8.91285C151.531 8.91285 153.59 12.111 153.59 15.7938C153.59 16.0603 153.566 16.3269 153.542 16.6176H144.141C144.456 18.7255 145.91 19.8642 147.824 19.8642C149.278 19.8642 150.247 19.3312 151.289 18.3378L153.009 19.8642C151.773 21.318 150.126 22.2629 147.775 22.2629ZM144.117 14.6793H150.683C150.489 12.8137 149.375 11.3115 147.436 11.3115C145.619 11.3115 144.383 12.6683 144.117 14.6793ZM160.435 22.2144C158.594 22.2144 156.631 21.5845 155.008 20.3004L156.316 18.3136C157.746 19.3554 159.175 19.8885 160.508 19.8885C161.768 19.8885 162.495 19.3554 162.495 18.5074V18.459C162.495 17.4898 161.138 17.1264 159.636 16.6661C157.77 16.1572 155.638 15.3577 155.638 12.9348V12.8864C155.638 10.4393 157.649 8.96131 160.193 8.96131C161.816 8.96131 163.537 9.51857 164.893 10.415L163.73 12.4987C162.495 11.7476 161.186 11.2873 160.12 11.2873C158.982 11.2873 158.327 11.8445 158.327 12.5472V12.5956C158.327 13.5163 159.708 13.9524 161.211 14.4128C163.052 14.9943 165.184 15.8423 165.184 18.144V18.1925C165.184 20.8819 163.101 22.2144 160.435 22.2144ZM167.752 7.21683V4.43053H170.902V7.21683H167.752ZM167.849 21.9721V9.17937H170.805V21.9721H167.849ZM179.845 25.8972C177.713 25.8972 175.799 25.3884 174.127 24.3708L175.218 22.166C176.599 23.014 178.028 23.4986 179.773 23.4986C182.389 23.4986 183.819 22.1902 183.819 19.5977V18.6286C182.753 19.9854 181.42 20.9545 179.312 20.9545C176.284 20.9545 173.497 18.7255 173.497 14.97V14.9216C173.497 11.1419 176.308 8.91285 179.312 8.91285C181.469 8.91285 182.801 9.90623 183.795 11.0934V9.17937H186.726V19.3554C186.726 21.4876 186.193 23.0867 185.103 24.177C183.94 25.3399 182.171 25.8972 179.845 25.8972ZM180.088 18.459C182.123 18.459 183.843 17.0295 183.843 14.9458V14.8974C183.843 12.8379 182.123 11.4084 180.088 11.4084C178.052 11.4084 176.453 12.7895 176.453 14.8974V14.9458C176.453 17.0295 178.077 18.459 180.088 18.459ZM189.898 21.9721V9.17937H192.854V11.1419C193.702 9.95469 194.841 8.91285 196.852 8.91285C199.759 8.91285 201.407 10.8269 201.407 13.8071V21.9721H198.475V14.7035C198.475 12.6925 197.481 11.578 195.737 11.578C194.017 11.578 192.854 12.741 192.854 14.752V21.9721H189.898ZM204.268 21.9721V18.6286H207.491V21.9721H204.268Z" fill="#0D0E10"/>
</g>
<defs>
<clipPath id="clip0_4364_2482">
<rect width="171.216" height="21.8059" fill="white" transform="translate(36.2835 4.28516)"/>
</clipPath>
</defs>
</svg>
