<svg width="362" height="362" viewBox="0 0 362 362" fill="none" xmlns="http://www.w3.org/2000/svg">
<path d="M263.544 0C263.858 31.0606 283.875 94.3112 361.433 98.8291V180.716H263.517C263.517 180.715 263.517 180.713 263.517 180.712C263.516 134.967 226.433 97.8838 180.688 97.8838C134.944 97.8838 97.8606 134.967 97.8604 180.712C97.8604 180.713 97.8604 180.715 97.8604 180.716H0V102.594C31.0606 102.594 94.3111 82.0751 98.8291 0H263.544Z" fill="#FF8901"/>
<path d="M263.544 180.715C263.858 211.775 283.875 275.026 361.433 279.544V361.431H263.519C263.519 361.429 263.519 361.427 263.519 361.425C263.518 315.68 226.435 278.597 180.69 278.597C134.946 278.597 97.8626 315.68 97.8623 361.425C97.8623 361.427 97.8623 361.429 97.8623 361.431H0V283.309C31.0606 283.309 94.3112 262.79 98.8291 180.715H263.544Z" fill="#FF8901"/>
</svg>
